<?xml version="1.0" standalone="no"?><!DOCTYPE svg PUBLIC "-//W3C//DTD SVG 1.1//EN" "http://www.w3.org/Graphics/SVG/1.1/DTD/svg11.dtd"><svg t="1635572409144" class="icon" viewBox="0 0 1024 1024" version="1.1" xmlns="http://www.w3.org/2000/svg" p-id="2213" xmlns:xlink="http://www.w3.org/1999/xlink" width="200" height="200"><defs><style type="text/css"></style></defs><path d="M512 0C230.4 0 0 230.4 0 512s230.4 512 512 512c281.6 0 512-230.4 512-512S793.6 0 512 0zM713.142857 449.828571c25.6 3.657143 40.228571 14.628571 43.885714 40.228571-3.657143 25.6-18.285714 36.571429-43.885714 40.228571l-135.314286 0 0 62.171429 135.314286 0c25.6 3.657143 40.228571 14.628571 43.885714 40.228571-3.657143 25.6-18.285714 36.571429-43.885714 40.228571l-135.314286 0 0 109.714286C577.828571 822.857143 555.885714 841.142857 512 841.142857c-43.885714 0-65.828571-21.942857-69.485714-62.171429l0-109.714286L310.857143 669.257143c-25.6-3.657143-40.228571-14.628571-43.885714-40.228571 3.657143-25.6 18.285714-36.571429 43.885714-40.228571l135.314286 0 0-62.171429L310.857143 526.628571c-25.6-3.657143-40.228571-14.628571-43.885714-40.228571 3.657143-25.6 18.285714-36.571429 43.885714-40.228571l76.8 0L270.628571 288.914286C259.657143 277.942857 256 263.314286 256 252.342857 259.657143 208.457143 285.257143 186.514286 325.485714 182.857143c25.6 3.657143 43.885714 10.971429 54.857143 29.257143L512 402.285714l135.314286-190.171429C658.285714 193.828571 676.571429 186.514286 698.514286 182.857143c40.228571 3.657143 62.171429 29.257143 69.485714 69.485714 0 14.628571-3.657143 29.257143-14.628571 40.228571l-117.028571 160.914286L713.142857 453.485714z" p-id="2214"></path></svg>